<mxfile host="app.diagrams.net" modified="2021-09-22T19:43:48.837Z" agent="5.0 (Windows NT 10.0; Win64; x64) AppleWebKit/537.36 (KHTML, like Gecko) Chrome/93.0.4577.82 Safari/537.36" etag="TROraH2QpcPiN2ZD7m0v" version="15.2.9" type="github">
  <diagram id="hiGkYWmm5E9R4qwjUONw" name="Page-1">
    <mxGraphModel dx="782" dy="507" grid="1" gridSize="10" guides="1" tooltips="1" connect="1" arrows="1" fold="1" page="1" pageScale="1" pageWidth="850" pageHeight="1100" math="0" shadow="0">
      <root>
        <mxCell id="0" />
        <mxCell id="1" parent="0" />
        <mxCell id="d1VfaluYkr6sNcdr90rd-1" value="" style="rounded=0;whiteSpace=wrap;html=1;fillColor=#A10101;strokeColor=#6F0000;fontColor=#ffffff;" parent="1" vertex="1">
          <mxGeometry width="850" height="520" as="geometry" />
        </mxCell>
        <mxCell id="d1VfaluYkr6sNcdr90rd-3" value="" style="rounded=0;whiteSpace=wrap;html=1;fillColor=#000000;" parent="1" vertex="1">
          <mxGeometry x="70" y="90" width="780" height="430" as="geometry" />
        </mxCell>
        <mxCell id="d1VfaluYkr6sNcdr90rd-5" value="" style="rounded=0;whiteSpace=wrap;html=1;fontColor=#FFFFFF;fillColor=#A3A3A3;" parent="1" vertex="1">
          <mxGeometry x="70" y="90" width="780" height="40" as="geometry" />
        </mxCell>
        <mxCell id="d1VfaluYkr6sNcdr90rd-6" value="Subject" style="text;html=1;strokeColor=none;fillColor=none;align=center;verticalAlign=middle;whiteSpace=wrap;rounded=0;fontFamily=Times New Roman;fontColor=#000000;fontSize=16;" parent="1" vertex="1">
          <mxGeometry x="110" y="100" width="40" height="20" as="geometry" />
        </mxCell>
        <mxCell id="d1VfaluYkr6sNcdr90rd-7" value="Priority" style="text;html=1;strokeColor=none;fillColor=none;align=center;verticalAlign=middle;whiteSpace=wrap;rounded=0;fontFamily=Times New Roman;fontSize=16;fontColor=#000000;" parent="1" vertex="1">
          <mxGeometry x="370" y="100" width="40" height="20" as="geometry" />
        </mxCell>
        <mxCell id="d1VfaluYkr6sNcdr90rd-8" value="Status" style="text;html=1;strokeColor=none;fillColor=none;align=center;verticalAlign=middle;whiteSpace=wrap;rounded=0;fontFamily=Times New Roman;fontSize=16;fontColor=#000000;" parent="1" vertex="1">
          <mxGeometry x="480" y="100" width="40" height="20" as="geometry" />
        </mxCell>
        <mxCell id="d1VfaluYkr6sNcdr90rd-10" value="Date" style="text;html=1;strokeColor=none;fillColor=none;align=center;verticalAlign=middle;whiteSpace=wrap;rounded=0;fontFamily=Times New Roman;fontSize=16;fontColor=#000000;" parent="1" vertex="1">
          <mxGeometry x="580" y="100" width="40" height="20" as="geometry" />
        </mxCell>
        <mxCell id="d1VfaluYkr6sNcdr90rd-11" value="Due" style="text;html=1;strokeColor=none;fillColor=none;align=center;verticalAlign=middle;whiteSpace=wrap;rounded=0;fontFamily=Times New Roman;fontSize=16;fontColor=#000000;" parent="1" vertex="1">
          <mxGeometry x="660" y="100" width="40" height="20" as="geometry" />
        </mxCell>
        <mxCell id="d1VfaluYkr6sNcdr90rd-12" value="Updated" style="text;html=1;strokeColor=none;fillColor=none;align=center;verticalAlign=middle;whiteSpace=wrap;rounded=0;fontFamily=Times New Roman;fontSize=16;fontColor=#000000;" parent="1" vertex="1">
          <mxGeometry x="750" y="100" width="40" height="20" as="geometry" />
        </mxCell>
        <mxCell id="d1VfaluYkr6sNcdr90rd-21" value="" style="rounded=0;whiteSpace=wrap;html=1;fontFamily=Times New Roman;fontSize=30;fontColor=#FFFFFF;fillColor=#333333;" parent="1" vertex="1">
          <mxGeometry x="70" y="130" width="780" height="60" as="geometry" />
        </mxCell>
        <mxCell id="d1VfaluYkr6sNcdr90rd-19" value="Unchecked Subject" style="text;html=1;strokeColor=none;fillColor=none;align=center;verticalAlign=middle;whiteSpace=wrap;rounded=0;fontFamily=Times New Roman;fontSize=30;fontColor=#FFFFFF;" parent="1" vertex="1">
          <mxGeometry x="60" y="150" width="260" height="20" as="geometry" />
        </mxCell>
        <mxCell id="d1VfaluYkr6sNcdr90rd-22" value="Normal" style="text;html=1;strokeColor=none;fillColor=none;align=center;verticalAlign=middle;whiteSpace=wrap;rounded=0;fontFamily=Times New Roman;fontSize=15;fontColor=#FFFFFF;" parent="1" vertex="1">
          <mxGeometry x="370" y="150" width="40" height="20" as="geometry" />
        </mxCell>
        <mxCell id="d1VfaluYkr6sNcdr90rd-24" value="New" style="text;html=1;strokeColor=none;fillColor=none;align=center;verticalAlign=middle;whiteSpace=wrap;rounded=0;fontFamily=Times New Roman;fontSize=15;fontColor=#FFFFFF;" parent="1" vertex="1">
          <mxGeometry x="480" y="150" width="40" height="20" as="geometry" />
        </mxCell>
        <mxCell id="d1VfaluYkr6sNcdr90rd-25" value="09/26/2021" style="text;html=1;strokeColor=none;fillColor=none;align=center;verticalAlign=middle;whiteSpace=wrap;rounded=0;fontFamily=Times New Roman;fontSize=15;fontColor=#FFFFFF;" parent="1" vertex="1">
          <mxGeometry x="580" y="150" width="40" height="20" as="geometry" />
        </mxCell>
        <mxCell id="d1VfaluYkr6sNcdr90rd-26" value="22 minutes ago" style="text;html=1;strokeColor=none;fillColor=none;align=center;verticalAlign=middle;whiteSpace=wrap;rounded=0;fontFamily=Times New Roman;fontSize=15;fontColor=#FFFFFF;" parent="1" vertex="1">
          <mxGeometry x="735" y="150" width="70" height="20" as="geometry" />
        </mxCell>
        <mxCell id="d1VfaluYkr6sNcdr90rd-27" value="" style="rounded=0;whiteSpace=wrap;html=1;fontFamily=Times New Roman;fontSize=30;fontColor=#FFFFFF;fillColor=#666666;" parent="1" vertex="1">
          <mxGeometry x="70" y="190" width="780" height="60" as="geometry" />
        </mxCell>
        <mxCell id="d1VfaluYkr6sNcdr90rd-28" value="Checked Subject" style="text;html=1;strokeColor=none;fillColor=none;align=center;verticalAlign=middle;whiteSpace=wrap;rounded=0;fontFamily=Times New Roman;fontSize=30;fontColor=#FFCCCC;" parent="1" vertex="1">
          <mxGeometry x="60" y="210" width="240" height="20" as="geometry" />
        </mxCell>
        <mxCell id="d1VfaluYkr6sNcdr90rd-29" value="Normal" style="text;html=1;strokeColor=none;fillColor=none;align=center;verticalAlign=middle;whiteSpace=wrap;rounded=0;fontFamily=Times New Roman;fontSize=15;fontColor=#FFFFFF;" parent="1" vertex="1">
          <mxGeometry x="370" y="210" width="40" height="20" as="geometry" />
        </mxCell>
        <mxCell id="d1VfaluYkr6sNcdr90rd-30" value="In Progress" style="text;html=1;strokeColor=none;fillColor=none;align=center;verticalAlign=middle;whiteSpace=wrap;rounded=0;fontFamily=Times New Roman;fontSize=15;fontColor=#FFFFFF;" parent="1" vertex="1">
          <mxGeometry x="465" y="210" width="70" height="20" as="geometry" />
        </mxCell>
        <mxCell id="d1VfaluYkr6sNcdr90rd-31" value="09/12/2021" style="text;html=1;strokeColor=none;fillColor=none;align=center;verticalAlign=middle;whiteSpace=wrap;rounded=0;fontFamily=Times New Roman;fontSize=15;fontColor=#FFFFFF;" parent="1" vertex="1">
          <mxGeometry x="580" y="210" width="40" height="20" as="geometry" />
        </mxCell>
        <mxCell id="d1VfaluYkr6sNcdr90rd-32" value="1 day ago" style="text;html=1;strokeColor=none;fillColor=none;align=center;verticalAlign=middle;whiteSpace=wrap;rounded=0;fontFamily=Times New Roman;fontSize=15;fontColor=#FFFFFF;" parent="1" vertex="1">
          <mxGeometry x="750" y="210" width="40" height="20" as="geometry" />
        </mxCell>
        <mxCell id="d1VfaluYkr6sNcdr90rd-33" value="" style="rounded=0;whiteSpace=wrap;html=1;fontFamily=Times New Roman;fontSize=30;fontColor=#FFFFFF;fillColor=#333333;" parent="1" vertex="1">
          <mxGeometry x="70" y="250" width="780" height="80" as="geometry" />
        </mxCell>
        <mxCell id="d1VfaluYkr6sNcdr90rd-34" value="" style="rounded=0;whiteSpace=wrap;html=1;fontFamily=Times New Roman;fontSize=30;fontColor=#FFFFFF;fillColor=#666666;" parent="1" vertex="1">
          <mxGeometry x="70" y="320" width="780" height="70" as="geometry" />
        </mxCell>
        <mxCell id="d1VfaluYkr6sNcdr90rd-35" value="" style="rounded=0;whiteSpace=wrap;html=1;fontFamily=Times New Roman;fontSize=30;fontColor=#FFFFFF;fillColor=#333333;" parent="1" vertex="1">
          <mxGeometry x="70" y="390" width="780" height="70" as="geometry" />
        </mxCell>
        <mxCell id="d1VfaluYkr6sNcdr90rd-36" value="" style="rounded=0;whiteSpace=wrap;html=1;fontFamily=Times New Roman;fontSize=30;fontColor=#FFFFFF;fillColor=#666666;" parent="1" vertex="1">
          <mxGeometry x="70" y="460" width="780" height="60" as="geometry" />
        </mxCell>
        <mxCell id="d1VfaluYkr6sNcdr90rd-37" value="Checked Subject" style="text;html=1;strokeColor=none;fillColor=none;align=center;verticalAlign=middle;whiteSpace=wrap;rounded=0;fontFamily=Times New Roman;fontSize=30;fontColor=#FFCCCC;" parent="1" vertex="1">
          <mxGeometry x="60" y="270" width="240" height="20" as="geometry" />
        </mxCell>
        <mxCell id="d1VfaluYkr6sNcdr90rd-38" value="Checked Subject" style="text;html=1;strokeColor=none;fillColor=none;align=center;verticalAlign=middle;whiteSpace=wrap;rounded=0;fontFamily=Times New Roman;fontSize=30;fontColor=#FFCCCC;" parent="1" vertex="1">
          <mxGeometry x="60" y="345" width="240" height="20" as="geometry" />
        </mxCell>
        <mxCell id="d1VfaluYkr6sNcdr90rd-39" value="Unchecked Subject" style="text;html=1;strokeColor=none;fillColor=none;align=center;verticalAlign=middle;whiteSpace=wrap;rounded=0;fontFamily=Times New Roman;fontSize=30;fontColor=#FFFFFF;" parent="1" vertex="1">
          <mxGeometry x="60" y="415" width="260" height="20" as="geometry" />
        </mxCell>
        <mxCell id="d1VfaluYkr6sNcdr90rd-40" value="Unchecked Subject" style="text;html=1;strokeColor=none;fillColor=none;align=center;verticalAlign=middle;whiteSpace=wrap;rounded=0;fontFamily=Times New Roman;fontSize=30;fontColor=#FFFFFF;" parent="1" vertex="1">
          <mxGeometry x="60" y="480" width="260" height="20" as="geometry" />
        </mxCell>
        <mxCell id="d1VfaluYkr6sNcdr90rd-41" value="In Progress" style="text;html=1;strokeColor=none;fillColor=none;align=center;verticalAlign=middle;whiteSpace=wrap;rounded=0;fontFamily=Times New Roman;fontSize=15;fontColor=#FFFFFF;" parent="1" vertex="1">
          <mxGeometry x="465" y="270" width="70" height="20" as="geometry" />
        </mxCell>
        <mxCell id="d1VfaluYkr6sNcdr90rd-42" value="In Progress" style="text;html=1;strokeColor=none;fillColor=none;align=center;verticalAlign=middle;whiteSpace=wrap;rounded=0;fontFamily=Times New Roman;fontSize=15;fontColor=#FFFFFF;" parent="1" vertex="1">
          <mxGeometry x="465" y="345" width="70" height="20" as="geometry" />
        </mxCell>
        <mxCell id="d1VfaluYkr6sNcdr90rd-43" value="New" style="text;html=1;strokeColor=none;fillColor=none;align=center;verticalAlign=middle;whiteSpace=wrap;rounded=0;fontFamily=Times New Roman;fontSize=15;fontColor=#FFFFFF;" parent="1" vertex="1">
          <mxGeometry x="480" y="415" width="40" height="20" as="geometry" />
        </mxCell>
        <mxCell id="d1VfaluYkr6sNcdr90rd-44" value="New" style="text;html=1;strokeColor=none;fillColor=none;align=center;verticalAlign=middle;whiteSpace=wrap;rounded=0;fontFamily=Times New Roman;fontSize=15;fontColor=#FFFFFF;" parent="1" vertex="1">
          <mxGeometry x="480" y="480" width="40" height="20" as="geometry" />
        </mxCell>
        <mxCell id="d1VfaluYkr6sNcdr90rd-45" value="09/30/2021&lt;br&gt;11:59pm" style="text;html=1;strokeColor=none;fillColor=none;align=center;verticalAlign=middle;whiteSpace=wrap;rounded=0;fontFamily=Times New Roman;fontSize=15;fontColor=#FFFFFF;" parent="1" vertex="1">
          <mxGeometry x="660" y="280" width="40" height="20" as="geometry" />
        </mxCell>
        <mxCell id="d1VfaluYkr6sNcdr90rd-46" value="" style="rounded=1;whiteSpace=wrap;html=1;fontFamily=Times New Roman;fontSize=15;fontColor=#FFFFFF;fillColor=#000000;strokeColor=#FFFFFF;" parent="1" vertex="1">
          <mxGeometry x="710" y="20" width="120" height="60" as="geometry" />
        </mxCell>
        <mxCell id="d1VfaluYkr6sNcdr90rd-47" value="New Ticket" style="text;html=1;strokeColor=none;fillColor=none;align=center;verticalAlign=middle;whiteSpace=wrap;rounded=0;fontFamily=Times New Roman;fontSize=15;fontColor=#FFFFFF;" parent="1" vertex="1">
          <mxGeometry x="740" y="40" width="90" height="20" as="geometry" />
        </mxCell>
        <mxCell id="d1VfaluYkr6sNcdr90rd-48" value="" style="shape=cross;whiteSpace=wrap;html=1;fontFamily=Times New Roman;fontSize=15;" parent="1" vertex="1">
          <mxGeometry x="712" y="37" width="30" height="30" as="geometry" />
        </mxCell>
        <mxCell id="Gpdd7vFYhtv06f4nwaT5-1" value="" style="shape=actor;whiteSpace=wrap;html=1;fillColor=#000000;strokeColor=#FFFFFF;" vertex="1" parent="1">
          <mxGeometry x="20" y="18" width="26.67" height="40" as="geometry" />
        </mxCell>
        <mxCell id="Gpdd7vFYhtv06f4nwaT5-2" value="Profile" style="text;html=1;strokeColor=none;fillColor=none;align=center;verticalAlign=middle;whiteSpace=wrap;rounded=0;fontColor=#FFFFFF;" vertex="1" parent="1">
          <mxGeometry x="13.339999999999975" y="60" width="40" height="20" as="geometry" />
        </mxCell>
        <mxCell id="Gpdd7vFYhtv06f4nwaT5-3" value="" style="shape=umlDestroy;whiteSpace=wrap;html=1;strokeWidth=3;fontColor=#FFFFFF;fillColor=#000000;strokeColor=#000000;" vertex="1" parent="1">
          <mxGeometry x="18.34" y="460" width="30" height="30" as="geometry" />
        </mxCell>
        <mxCell id="Gpdd7vFYhtv06f4nwaT5-4" value="Logout" style="text;html=1;strokeColor=none;fillColor=none;align=center;verticalAlign=middle;whiteSpace=wrap;rounded=0;fontColor=#FFFFFF;" vertex="1" parent="1">
          <mxGeometry x="13" y="493" width="40" height="20" as="geometry" />
        </mxCell>
        <mxCell id="Gpdd7vFYhtv06f4nwaT5-5" value="" style="verticalLabelPosition=bottom;verticalAlign=top;html=1;shape=mxgraph.basic.sun;fontColor=#FFFFFF;fillColor=#000000;strokeColor=#FFFFFF;" vertex="1" parent="1">
          <mxGeometry x="10.5" y="90" width="45" height="45" as="geometry" />
        </mxCell>
        <mxCell id="Gpdd7vFYhtv06f4nwaT5-6" value="Time Off/Request" style="text;html=1;strokeColor=none;fillColor=none;align=center;verticalAlign=middle;whiteSpace=wrap;rounded=0;fontColor=#FFFFFF;" vertex="1" parent="1">
          <mxGeometry x="13" y="134" width="40" height="40" as="geometry" />
        </mxCell>
        <mxCell id="Gpdd7vFYhtv06f4nwaT5-7" value="" style="shape=tape;whiteSpace=wrap;html=1;fontColor=#FFFFFF;fillColor=#000000;strokeColor=#FFFFFF;" vertex="1" parent="1">
          <mxGeometry x="13.34" y="185" width="40" height="30" as="geometry" />
        </mxCell>
        <mxCell id="Gpdd7vFYhtv06f4nwaT5-8" value="Pay/Payroll" style="text;html=1;strokeColor=none;fillColor=none;align=center;verticalAlign=middle;whiteSpace=wrap;rounded=0;fontColor=#FFFFFF;" vertex="1" parent="1">
          <mxGeometry x="13.34" y="216" width="40" height="30" as="geometry" />
        </mxCell>
        <mxCell id="Gpdd7vFYhtv06f4nwaT5-9" value="" style="shape=message;html=1;whiteSpace=wrap;html=1;outlineConnect=0;fontColor=#FFFFFF;fillColor=#000000;strokeColor=#FFFFFF;" vertex="1" parent="1">
          <mxGeometry x="10.84" y="398" width="45" height="30" as="geometry" />
        </mxCell>
        <mxCell id="Gpdd7vFYhtv06f4nwaT5-10" value="Inbox" style="text;html=1;strokeColor=none;fillColor=none;align=center;verticalAlign=middle;whiteSpace=wrap;rounded=0;fontColor=#FFFFFF;" vertex="1" parent="1">
          <mxGeometry x="13" y="431" width="40" height="20" as="geometry" />
        </mxCell>
        <mxCell id="Gpdd7vFYhtv06f4nwaT5-11" value="" style="rounded=1;whiteSpace=wrap;html=1;fontColor=#FFFFFF;strokeColor=#000000;fillColor=#000000;" vertex="1" parent="1">
          <mxGeometry x="70" y="18" width="460" height="65" as="geometry" />
        </mxCell>
        <mxCell id="Gpdd7vFYhtv06f4nwaT5-12" value="Filters" style="text;html=1;strokeColor=none;fillColor=none;align=center;verticalAlign=middle;whiteSpace=wrap;rounded=0;fontColor=#FFFFFF;fontSize=35;" vertex="1" parent="1">
          <mxGeometry x="115" y="38" width="370" height="20" as="geometry" />
        </mxCell>
        <mxCell id="Gpdd7vFYhtv06f4nwaT5-13" value="" style="triangle;whiteSpace=wrap;html=1;fontSize=35;fontColor=#FFFFFF;strokeColor=#000000;fillColor=#FFFFFF;rotation=90;" vertex="1" parent="1">
          <mxGeometry x="292.5" y="63" width="15" height="20" as="geometry" />
        </mxCell>
      </root>
    </mxGraphModel>
  </diagram>
</mxfile>
